<svg xmlns="http://www.w3.org/2000/svg" xmlns:xlink="http://www.w3.org/1999/xlink" width="6912" zoomAndPan="magnify" viewBox="0 0 5184 2592.000001" height="3456" preserveAspectRatio="xMidYMid meet" version="1.0"><defs><clipPath id="d2703c5ba5"><path d="M 4275 210 L 5183 210 L 5183 1242 L 4275 1242 Z M 4275 210 " clip-rule="nonzero"/></clipPath><clipPath id="187e1ec273"><path d="M 4731 193 L 5183 193 L 5183 771 L 4731 771 Z M 4731 193 " clip-rule="nonzero"/></clipPath><clipPath id="767d8be2c6"><path d="M 1 0 L 698.980469 0 L 698.980469 568.28125 L 1 568.28125 Z M 1 0 " clip-rule="nonzero"/></clipPath></defs><path fill="#ffffff" d="M 1 0 L 5183 0 L 5183 2591 L 1 2591 Z M 1 0 " fill-opacity="1" fill-rule="nonzero"/><path fill="#f4f1f1" d="M 1 0 L 5183 0 L 5183 2591 L 1 2591 Z M 1 0 " fill-opacity="1" fill-rule="nonzero"/><g clip-path="url(#d2703c5ba5)"><path fill="#ffb1b1" d="M 4453.949219 1241.148438 C 4398.289062 1241.148438 4334.910156 1223.023438 4300.222656 1170.855469 C 4259.699219 1110.179688 4277.515625 1032.007812 4291.707031 990.71875 C 4299.90625 966.605469 4310.46875 943.121094 4320.558594 920.425781 C 4334.433594 889.378906 4348.625 857.230469 4357.140625 824.132812 C 4371.488281 767.710938 4363.128906 721.691406 4329.390625 669.996094 C 4297.855469 621.613281 4300.222656 567.242188 4306.6875 520.277344 C 4322.609375 405.855469 4388.199219 303.414062 4482.328125 246.519531 C 4511.96875 228.554688 4588.4375 190.257812 4656.550781 224.300781 C 4688.714844 240.375 4711.105469 269.058594 4732.703125 296.796875 C 4754.777344 325.007812 4775.589844 351.640625 4805.546875 365.824219 C 4838.027344 380.957031 4874.289062 378.433594 4912.761719 375.753906 C 4929.160156 374.652344 4946.03125 373.546875 4962.425781 373.707031 C 5035.425781 375.125 5107.953125 408.378906 5156.675781 462.59375 C 5205.394531 516.808594 5230.621094 592.613281 5224.15625 665.269531 C 5222.265625 686.230469 5217.847656 707.347656 5213.75 727.679688 C 5206.183594 764.402344 5198.929688 799.074219 5205.078125 833.902344 C 5211.386719 868.734375 5230.9375 900.410156 5250.015625 930.988281 C 5255.058594 939.183594 5260.261719 947.375 5265.148438 955.574219 C 5297.3125 1010.101562 5306.457031 1055.492188 5293.371094 1094.261719 C 5274.136719 1150.683594 5213.121094 1175.585938 5166.765625 1179.683594 C 5126.085938 1183.308594 5085.882812 1175.742188 5046.78125 1168.492188 C 5035.742188 1166.445312 5024.707031 1164.394531 5013.667969 1162.503906 C 4899.203125 1143.75 4780.003906 1151.945312 4669.007812 1186.144531 C 4651.503906 1191.503906 4634.003906 1197.648438 4616.503906 1203.636719 C 4572.828125 1218.769531 4527.734375 1234.527344 4480.75 1239.570312 C 4472.078125 1240.675781 4463.09375 1241.148438 4453.949219 1241.148438 Z M 4596.480469 226.347656 C 4551.859375 226.347656 4510.078125 247.9375 4490.367188 259.917969 C 4400.339844 314.445312 4337.589844 412.632812 4322.292969 522.480469 C 4316.144531 566.453125 4313.78125 617.359375 4342.476562 661.328125 C 4378.425781 716.332031 4387.570312 767.710938 4372.277344 828.070312 C 4363.445312 862.429688 4348.941406 895.210938 4334.910156 926.886719 C 4324.976562 949.269531 4314.570312 972.59375 4306.527344 995.917969 C 4293.285156 1034.375 4276.570312 1107.183594 4313.308594 1162.1875 C 4349.886719 1217.035156 4422.886719 1230.113281 4479.015625 1224.125 C 4524.269531 1219.242188 4568.574219 1203.796875 4611.300781 1188.980469 C 4628.960938 1182.835938 4646.460938 1176.6875 4664.277344 1171.171875 C 4777.484375 1136.183594 4899.203125 1127.988281 5016.035156 1147.058594 C 5027.230469 1148.949219 5038.421875 1151 5049.460938 1153.046875 C 5087.457031 1160.140625 5126.71875 1167.546875 5165.1875 1164.078125 C 5210.28125 1160.140625 5262.628906 1135.394531 5278.394531 1089.21875 C 5290.0625 1055.019531 5281.230469 1013.886719 5251.589844 963.609375 C 5246.859375 955.414062 5241.816406 947.375 5236.769531 939.339844 C 5216.902344 907.503906 5196.40625 874.566406 5189.628906 836.738281 C 5182.847656 798.914062 5190.730469 761.089844 5198.300781 724.527344 C 5202.398438 704.667969 5206.65625 684.023438 5208.546875 664.007812 C 5214.539062 595.609375 5190.886719 524.375 5145.007812 473.308594 C 5099.125 422.246094 5030.855469 391.042969 4962.113281 389.625 C 4946.34375 389.308594 4929.789062 390.410156 4913.707031 391.515625 C 4874.921875 394.195312 4834.875 397.03125 4798.609375 380.007812 C 4765.183594 364.25 4742.164062 334.933594 4719.933594 306.410156 C 4698.332031 278.828125 4678.152344 252.824219 4649.140625 238.324219 C 4632.113281 229.65625 4613.980469 226.347656 4596.480469 226.347656 Z M 4596.480469 226.347656 " fill-opacity="1" fill-rule="nonzero"/></g><g clip-path="url(#187e1ec273)"><path fill="#d10808" d="M 4992.226562 770.230469 C 4949.972656 770.230469 4907.558594 763.296875 4866.09375 746.90625 C 4830.933594 733.039062 4783 706.246094 4753.988281 657.546875 C 4727.027344 612.316406 4724.664062 556.523438 4747.839844 515.390625 C 4759.351562 495.058594 4776.0625 478.984375 4792.304688 463.539062 C 4802.078125 454.238281 4812.167969 444.46875 4820.839844 434.226562 C 4837.082031 414.683594 4839.761719 394.351562 4842.597656 372.601562 C 4844.492188 358.101562 4846.542969 342.972656 4852.53125 327.527344 C 4867.828125 288.128906 4908.820312 246.046875 4940.511719 223.511719 C 4980.402344 195.140625 5045.359375 179.382812 5093.292969 211.691406 C 5115.996094 226.976562 5130.816406 249.988281 5145.164062 272.367188 C 5157.148438 290.964844 5168.5 308.617188 5184.109375 322.167969 C 5212.648438 346.914062 5253.167969 355.265625 5292.269531 363.460938 C 5340.359375 373.546875 5389.867188 383.792969 5419.191406 424.296875 C 5451.355469 468.898438 5440.949219 529.101562 5416.195312 569.132812 C 5389.867188 611.683594 5347.925781 641.15625 5306.460938 666.53125 C 5221.949219 718.066406 5108.113281 770.230469 4992.226562 770.230469 Z M 4949.8125 236.277344 C 4919.070312 258.183594 4880.914062 298.371094 4867.351562 333.203125 C 4861.992188 346.914062 4860.101562 361.097656 4858.367188 374.652344 C 4855.371094 397.660156 4852.21875 421.300781 4833.140625 444.3125 C 4823.996094 455.34375 4813.429688 465.273438 4803.339844 475.042969 C 4787.257812 490.488281 4771.964844 504.988281 4761.714844 523.269531 C 4741.21875 559.519531 4743.585938 609.164062 4767.550781 649.667969 C 4794.195312 694.582031 4838.972656 719.484375 4871.925781 732.566406 C 5021.078125 791.507812 5186.160156 722.007812 5298.417969 653.132812 C 5338.148438 628.707031 5378.355469 600.652344 5402.953125 560.9375 C 5424.867188 525.476562 5434.484375 472.363281 5406.578125 433.59375 C 5380.878906 398.132812 5336.417969 388.835938 5289.273438 379.0625 C 5248.121094 370.554688 5205.710938 361.570312 5174.019531 334.304688 C 5156.675781 319.332031 5144.21875 299.789062 5132.078125 281.035156 C 5118.046875 259.128906 5104.800781 238.484375 5084.777344 224.929688 C 5042.839844 196.402344 4985.445312 210.902344 4949.8125 236.277344 Z M 4949.8125 236.277344 " fill-opacity="1" fill-rule="nonzero"/></g><path fill="#d10808" d="M 4316.144531 1412.933594 C 4279.09375 1412.933594 4240.9375 1400.484375 4208.929688 1376.371094 C 4164.785156 1343.117188 4133.09375 1290.003906 4120.007812 1226.804688 C 4102.347656 1142.015625 4146.652344 952.105469 4241.882812 873.304688 C 4285.085938 837.527344 4333.960938 829.648438 4383.15625 850.136719 C 4440.074219 873.777344 4477.914062 925.628906 4510.394531 978.109375 L 4520.484375 994.5 C 4547.761719 1039.101562 4575.824219 1085.277344 4617.605469 1115.539062 C 4629.90625 1124.363281 4643.464844 1132.085938 4656.707031 1139.492188 C 4672.632812 1148.476562 4689.1875 1157.617188 4704.007812 1169.4375 C 4730.65625 1190.558594 4755.566406 1226.804688 4745.792969 1265.261719 C 4733.652344 1312.699219 4676.417969 1331.136719 4628.011719 1328.300781 C 4614.613281 1327.511719 4601.050781 1325.777344 4588.125 1324.046875 C 4556.273438 1319.789062 4526.160156 1315.851562 4497.621094 1324.832031 C 4473.972656 1332.242188 4454.421875 1347.527344 4433.609375 1363.761719 C 4416.894531 1376.84375 4399.550781 1390.394531 4379.6875 1399.535156 C 4359.820312 1408.519531 4338.21875 1412.933594 4316.144531 1412.933594 Z M 4329.863281 854.707031 C 4302.742188 854.707031 4276.570312 864.949219 4251.816406 885.597656 C 4160.683594 960.929688 4118.273438 1142.644531 4135.300781 1223.652344 C 4147.757812 1283.226562 4177.238281 1332.871094 4218.390625 1363.917969 C 4264.117188 1398.277344 4326.238281 1406.945312 4372.90625 1385.195312 C 4391.039062 1376.683594 4407.75 1363.761719 4423.832031 1351.3125 C 4444.804688 1334.921875 4466.5625 1318.058594 4492.890625 1309.863281 C 4524.742188 1299.933594 4558.007812 1304.34375 4590.171875 1308.601562 C 4602.945312 1310.335938 4616.1875 1312.066406 4628.960938 1312.855469 C 4671.054688 1315.21875 4720.5625 1300.40625 4730.496094 1261.636719 C 4738.382812 1230.585938 4715.835938 1199.382812 4694.234375 1182.203125 C 4680.515625 1171.328125 4665.222656 1162.660156 4649.140625 1153.679688 C 4635.582031 1146.113281 4621.390625 1138.234375 4608.460938 1128.777344 C 4564.15625 1096.625 4535.148438 1049.1875 4507.238281 1003.167969 L 4497.148438 986.777344 C 4466.089844 936.503906 4430.140625 887.015625 4377.320312 865.109375 C 4360.921875 858.015625 4345.3125 854.707031 4329.863281 854.707031 Z M 4329.863281 854.707031 " fill-opacity="1" fill-rule="nonzero"/><path fill="#ff7272" d="M 430.253906 0.113281 L 409.632812 101.246094 C 405.53125 114.105469 399.175781 126.652344 390.558594 138.882812 C 386.574219 145.136719 377.433594 150.710938 363.132812 155.597656 C 356.746094 157.632812 349.832031 159.089844 342.386719 159.964844 L 227.097656 160.796875 C 207.886719 165.640625 197.210938 170.363281 195.066406 174.96875 C 189.59375 185.292969 186.519531 193.605469 185.84375 199.90625 L 199.714844 293.683594 L 200.773438 319.289062 C 197.984375 338.054688 192.425781 350.480469 184.09375 356.558594 C 169 363.664062 148.632812 368.921875 122.996094 372.34375 C 92.546875 373.578125 51.898438 374.449219 1.046875 374.960938 L 1.050781 384.730469 C 42.421875 384.457031 81.378906 383.644531 117.917969 382.289062 C 157.625 378.394531 182.632812 371.132812 192.9375 360.503906 C 201.300781 352.800781 207.414062 340.0625 211.277344 322.296875 C 210.1875 293.429688 205.113281 253.996094 196.054688 203.992188 C 196.777344 193.023438 199.089844 184.925781 202.996094 179.695312 C 206.171875 176.144531 217.007812 172.851562 235.496094 169.816406 C 253.230469 168.875 282.980469 169.160156 324.738281 170.664062 L 346.332031 168.964844 C 365.25 165.644531 379.117188 161.089844 387.929688 155.308594 C 393.660156 150.433594 398.777344 145.078125 403.277344 139.246094 L 419.535156 102.84375 L 440.414062 0.113281 Z M 430.253906 0.113281 " fill-opacity="1" fill-rule="nonzero"/><path fill="#ff7272" d="M 491.222656 0.113281 L 489.050781 3.726562 C 483.40625 13.445312 478.980469 23.882812 475.773438 35.039062 C 462.832031 101.863281 455.035156 139.117188 452.375 146.808594 C 449.023438 156.878906 442.269531 168.617188 432.117188 182.019531 C 420.285156 190.664062 409.195312 195.847656 398.84375 197.566406 L 373.203125 200.109375 L 276.546875 199.527344 C 260.144531 201.570312 247.808594 206.507812 239.539062 214.335938 C 234.507812 221.386719 231.664062 230.800781 231.011719 242.578125 L 244.449219 332.855469 L 245.613281 356.1875 C 244.753906 372.175781 239.609375 384.785156 230.191406 394.011719 C 226.375 399.496094 207.121094 405.023438 172.425781 410.589844 C 164.921875 411.382812 153.796875 412.039062 139.054688 412.550781 L 15.253906 415.394531 L 1.050781 417.253906 L 1.050781 426.625 C 2.894531 424.246094 54.964844 422.636719 157.25 421.796875 C 191.867188 420.195312 218 413.164062 235.65625 400.707031 C 247.320312 389.589844 254.105469 376.511719 256.011719 361.46875 C 258.484375 359.515625 253.410156 320.082031 240.789062 243.167969 C 241.242188 233.113281 243.53125 225.382812 247.65625 219.976562 C 253.691406 214.570312 263.929688 210.875 278.371094 208.886719 C 293.371094 207.984375 324.261719 208.3125 371.039062 209.867188 C 373.59375 210.039062 382.25 209.230469 397.003906 207.445312 C 416.609375 203.160156 430.238281 197.628906 437.886719 190.863281 C 446.042969 184.125 454.675781 168.21875 463.792969 143.140625 L 486.46875 33.234375 C 489.125 23.144531 494.386719 12.105469 502.257812 0.113281 Z M 491.222656 0.113281 " fill-opacity="1" fill-rule="nonzero"/><path fill="#ff7272" d="M 567.945312 0.113281 L 561.679688 5.421875 C 545.488281 19.867188 533.433594 36.691406 525.523438 55.902344 C 522.023438 64.652344 519.28125 73.449219 517.296875 82.292969 C 507.023438 139.765625 500.929688 171.449219 499.007812 177.34375 C 488.914062 202.296875 481.527344 215.980469 476.851562 218.398438 C 462.578125 228.222656 451.484375 233.402344 443.578125 233.945312 L 417.933594 236.484375 L 321.28125 235.902344 C 301.601562 239.019531 289.355469 243.890625 284.535156 250.519531 C 277.40625 263.824219 274.476562 273.300781 275.746094 278.953125 L 289.183594 369.234375 L 290.351562 392.566406 C 288.519531 411.429688 283.242188 424.039062 274.519531 430.390625 C 265.777344 437.121094 248.097656 442.617188 221.484375 446.890625 L 48.933594 452.632812 C 30.8125 455.160156 14.847656 459.652344 1.046875 466.109375 L 1.050781 476.320312 C 17.179688 468.4375 33.035156 463.804688 48.613281 462.429688 L 70.40625 460.738281 L 186.445312 458.648438 L 223.644531 455.976562 C 251.136719 451.734375 269.347656 446.347656 278.277344 439.816406 C 291.265625 429.753906 298.539062 414.214844 300.097656 393.195312 L 298.886719 367.554688 L 285.59375 283.324219 C 285.835938 270.882812 287.617188 262.609375 290.9375 258.511719 C 295.917969 251.953125 306.425781 247.539062 322.464844 245.273438 C 338.664062 244.359375 368.367188 244.664062 411.574219 246.191406 C 424.628906 245.808594 434.089844 245.164062 439.949219 244.25 C 457.890625 241.457031 472.398438 235.242188 483.476562 225.605469 C 493.394531 214.089844 501.070312 200.550781 506.503906 184.984375 L 512.996094 159.609375 L 526.714844 84.148438 C 527.882812 77.59375 531.660156 66.996094 538.058594 52.351562 C 549.5 29.097656 564.925781 11.6875 584.335938 0.113281 Z M 567.945312 0.113281 " fill-opacity="1" fill-rule="nonzero"/><g clip-path="url(#767d8be2c6)"><path fill="#ff7272" d="M 677.070312 0.113281 L 662.054688 8.039062 C 624.730469 27.140625 598.453125 48.324219 583.222656 71.582031 C 574.941406 86.003906 568.765625 98.925781 564.699219 110.34375 L 541.1875 223.441406 C 533.003906 243.085938 525.550781 255.363281 518.824219 260.273438 C 510.839844 267.457031 494.789062 272.433594 470.679688 275.199219 L 361.664062 275.585938 C 347.953125 277.464844 337.15625 282.167969 329.269531 289.691406 C 322.746094 300.914062 319.816406 310.390625 320.480469 318.125 L 333.917969 408.40625 L 335.085938 431.738281 C 333.6875 448.203125 328.96875 460.285156 320.9375 467.976562 C 304.339844 478.433594 285.78125 484.355469 265.261719 485.742188 L 230.894531 488.050781 C 195.652344 488.074219 159.351562 488.625 121.992188 489.691406 C 97.273438 490.917969 80.386719 492.839844 71.335938 495.464844 C 44.332031 501.910156 23.113281 514.6875 7.6875 533.789062 L 1.050781 546.304688 L 1.050781 568.132812 C 14.640625 535.59375 34.714844 515.546875 61.273438 507.996094 C 76.171875 503.949219 91.769531 501.351562 108.070312 500.191406 L 274.339844 494.699219 C 288.960938 492.914062 304.21875 488.214844 320.109375 480.601562 C 335.898438 469.859375 344.140625 454.046875 344.84375 433.160156 L 343.621094 406.730469 L 330.121094 319.296875 C 329.371094 312.8125 331.992188 304.394531 337.976562 294.042969 C 341.269531 290.152344 352.78125 286.851562 372.503906 284.128906 C 390.351562 283.632812 418.289062 284.046875 456.3125 285.367188 L 482.761719 283.625 C 501.191406 280.71875 515.09375 275.585938 524.472656 268.21875 C 532.867188 262.101562 541.539062 248.191406 550.488281 226.492188 L 557.730469 198.785156 C 565.832031 152.464844 570.785156 125.632812 572.585938 118.292969 C 576.886719 105.152344 582.1875 93.117188 588.484375 82.1875 C 609.679688 49.152344 646.542969 21.796875 699.070312 0.113281 L 677.070312 0.117188 Z M 677.070312 0.113281 " fill-opacity="1" fill-rule="nonzero"/></g><path fill="#ff7272" d="M 197 0.113281 L 196.136719 0.621094 C 188.542969 5.148438 182.167969 8.121094 177.011719 9.53125 L 146.734375 12.632812 L 42.925781 12.722656 C 27.136719 17.808594 17.925781 21.773438 15.300781 24.625 C 8.277344 35.445312 4.660156 44.722656 4.453125 52.457031 L 17.980469 145.382812 L 19.144531 168.710938 L 13.949219 193.292969 L 13.171875 195.128906 C 11.761719 199.003906 7.71875 203.261719 1.046875 207.90625 L 1.050781 219.742188 C 7.058594 215.671875 13.878906 208.164062 21.503906 197.226562 C 25.359375 190.863281 27.9375 184.207031 29.234375 177.269531 C 29.070312 166.09375 28.632812 155.75 27.921875 146.226562 L 14.101562 52.035156 C 14.867188 46.070312 17.363281 39.375 21.59375 31.949219 C 32.394531 25.585938 42.527344 22.089844 52 21.464844 C 79.632812 20.664062 109.089844 20.957031 140.371094 22.339844 C 153.449219 21.949219 162.09375 21.347656 166.300781 20.539062 C 189.773438 14.839844 202.890625 10.980469 205.648438 8.964844 C 208.574219 6.722656 211.5625 3.773438 214.625 0.113281 Z M 197 0.113281 " fill-opacity="1" fill-rule="nonzero"/><path fill="#ff7272" d="M 270.066406 0.113281 L 268.296875 4.933594 C 260.011719 27.851562 244.023438 42.257812 220.339844 48.148438 C 213.707031 49.941406 205.28125 51.097656 195.0625 51.617188 C 182.261719 52.035156 154.28125 51.585938 111.117188 50.277344 L 93.628906 51.328125 C 76.765625 55.210938 66.625 58.121094 63.207031 60.0625 C 58.875 64.496094 55.070312 70.519531 51.789062 78.132812 C 50.0625 82.542969 49.183594 86.765625 49.152344 90.804688 L 62.714844 184.554688 L 63.652344 210.628906 C 62.792969 216.863281 61.84375 221.628906 60.804688 224.925781 C 56.59375 238.128906 51.4375 245.621094 45.328125 247.402344 C 34.535156 253.527344 19.777344 257.902344 1.046875 260.519531 L 1.050781 270.714844 C 14.136719 268.773438 25.582031 266.054688 35.382812 262.554688 C 57.933594 256.351562 70.417969 239.664062 72.835938 212.492188 L 73.6875 206.335938 L 72.414062 182.878906 L 59.222656 98.019531 C 58.601562 89.105469 60.394531 80.878906 64.601562 73.332031 C 68.886719 68.289062 78.351562 64.125 93 60.835938 C 103.152344 59.75 138.863281 59.894531 200.140625 61.269531 C 208.179688 61.433594 218.933594 59.351562 232.40625 55.019531 C 239.832031 52.855469 249.28125 47.199219 260.75 38.046875 C 273.558594 16.179688 280.054688 3.535156 280.242188 0.113281 Z M 270.066406 0.113281 " fill-opacity="1" fill-rule="nonzero"/><path fill="#ff7272" d="M 323.445312 0.113281 L 316.050781 34.160156 C 306.285156 54.050781 299.53125 66.152344 295.792969 70.460938 C 288.28125 75.289062 279.414062 79.601562 269.191406 83.398438 L 256.617188 86.824219 L 126.535156 88.925781 C 122.78125 89.964844 114.871094 94.394531 102.800781 102.21875 C 95.726562 117.925781 92.613281 126.046875 93.460938 126.582031 L 107.449219 220.929688 L 108.558594 249.484375 C 107.523438 255.722656 105.460938 261.871094 102.363281 267.933594 L 96.472656 278.746094 C 83.246094 286.742188 71.925781 292.175781 62.519531 295.050781 C 55.230469 297.53125 34.738281 299.316406 1.046875 300.398438 L 1.050781 309.214844 L 50.261719 307.238281 L 61.257812 305.011719 C 71.324219 301.921875 83.375 296.753906 97.410156 289.515625 C 105.0625 281.449219 110.632812 274.511719 114.117188 268.699219 C 118.1875 261.863281 120.238281 254.089844 120.269531 245.386719 C 119.933594 236.765625 114.339844 197.484375 103.488281 127.546875 C 103.679688 124.660156 105.957031 117.945312 110.324219 107.410156 C 119.320312 102.894531 127.964844 99.523438 136.257812 97.292969 L 257.859375 96.308594 C 265.265625 95.167969 276.886719 91.054688 292.726562 83.964844 C 301.242188 78.898438 306.511719 74.28125 308.535156 70.113281 C 315.675781 56.859375 321.976562 42.988281 327.433594 28.496094 L 332.917969 0.113281 Z M 323.445312 0.113281 " fill-opacity="1" fill-rule="nonzero"/><path fill="#ff7272" d="M 375.167969 0.113281 L 366.277344 48.988281 C 365.132812 60.242188 358.789062 77.132812 347.25 99.660156 C 339.519531 110.480469 332.5 116.71875 326.183594 118.378906 C 318.6875 121.375 308.046875 124.167969 294.273438 126.757812 C 270.195312 127.632812 238.757812 127.320312 199.960938 125.824219 C 190.289062 126.210938 182.902344 126.742188 177.792969 127.410156 C 167.800781 128.105469 157.179688 133.367188 145.933594 143.195312 C 140.988281 152.21875 138.644531 162.332031 138.902344 173.535156 L 152.183594 260.105469 L 153.347656 283.4375 C 149.667969 304.921875 145.320312 317.027344 140.304688 319.753906 C 123.703125 329.390625 105.359375 335.351562 85.273438 337.632812 C 78.140625 339.011719 50.0625 340.070312 1.046875 340.804688 L 1.050781 350.675781 L 77.566406 348.417969 C 95.222656 346.066406 111.601562 342.464844 126.707031 337.613281 C 135.277344 334.582031 141.652344 331.210938 145.839844 327.507812 C 153.527344 323.28125 159.277344 308.804688 163.097656 284.066406 L 161.882812 258.429688 L 148.230469 170.132812 C 149.4375 160.707031 151.339844 153.792969 153.933594 149.386719 C 158.878906 143.640625 168.742188 139.234375 183.519531 136.164062 C 202.347656 135.28125 234.605469 135.566406 280.285156 137.015625 C 288.765625 136.613281 298.257812 135.691406 308.761719 134.25 C 324.152344 130.167969 335.699219 125.152344 343.410156 119.199219 C 357.824219 102.882812 367.140625 87.035156 371.351562 71.664062 C 373.953125 62.449219 378.515625 38.597656 385.042969 0.113281 Z M 375.167969 0.113281 " fill-opacity="1" fill-rule="nonzero"/></svg>